<svg width="300" height="300" viewBox="0 0 300 300" fill="none"
    xmlns="http://www.w3.org/2000/svg">
    <circle cx="150" cy="150" r="137.5" stroke-width="25"/>
    <g filter="url(#filter0_d_1_5)">
        <path d="M150 50L172.451 119.098H245.106L186.327 161.803L208.779 230.902L150 188.197L91.2215 230.902L113.673 161.803L54.8943 119.098H127.549L150 50Z" fill="#D0D3D5"/>
        <path d="M150 82.3607L162.941 122.188L165.186 129.098H172.451H214.329L180.449 153.713L174.571 157.984L176.817 164.894L189.757 204.721L155.878 180.106L150 175.836L144.122 180.106L110.243 204.721L123.183 164.894L125.429 157.984L119.551 153.713L85.6712 129.098H127.549H134.814L137.059 122.188L150 82.3607Z" stroke="black" stroke-width="20"/>
    </g>
    <defs>
        <filter id="filter0_d_1_5" x="50.8943" y="50" width="198.211" height="188.902" filterUnits="userSpaceOnUse" color-interpolation-filters="sRGB">
            <feFlood flood-opacity="0" result="BackgroundImageFix"/>
            <feColorMatrix in="SourceAlpha" type="matrix" values="0 0 0 0 0 0 0 0 0 0 0 0 0 0 0 0 0 0 127 0" result="hardAlpha"/>
            <feOffset dy="4"/>
            <feGaussianBlur stdDeviation="2"/>
            <feComposite in2="hardAlpha" operator="out"/>
            <feColorMatrix type="matrix" values="0 0 0 0 0 0 0 0 0 0 0 0 0 0 0 0 0 0 0.25 0"/>
            <feBlend mode="normal" in2="BackgroundImageFix" result="effect1_dropShadow_1_5"/>
            <feBlend mode="normal" in="SourceGraphic" in2="effect1_dropShadow_1_5" result="shape"/>
        </filter>
    </defs>
</svg>
